<?xml version="1.0" encoding="utf-8"?>
<!-- Generator: Adobe Illustrator 26.0.3, SVG Export Plug-In . SVG Version: 6.00 Build 0)  -->
<svg version="1.1" id="Layer_1" xmlns="http://www.w3.org/2000/svg" xmlns:xlink="http://www.w3.org/1999/xlink" x="0px" y="0px"
	 viewBox="0 0 400 400" style="enable-background:new 0 0 400 400;" xml:space="preserve">
<style type="text/css">
	.st0{opacity:0.3;}
	.st1{clip-path:url(#SVGID_00000114754769155978112020000008153868367600852358_);}
	.st2{filter:url(#Adobe_OpacityMaskFilter);}
	
		.st3{clip-path:url(#SVGID_00000011030299708802467770000008265975702140751745_);fill:url(#SVGID_00000116212877079253332980000007936156022977431938_);}
	
		.st4{clip-path:url(#SVGID_00000011030299708802467770000008265975702140751745_);mask:url(#SVGID_00000139265980480435540880000008790836073634079679_);fill:url(#SVGID_00000138559772525844891040000001312805235060637060_);}
	.st5{opacity:0.85;}
	.st6{clip-path:url(#SVGID_00000147207069678191836790000014057015639780947357_);}
	
		.st7{clip-path:url(#SVGID_00000080928036951694090200000012980096268282781057_);fill:url(#SVGID_00000130636568634812136630000006588807210652473249_);}
	.st8{clip-path:url(#SVGID_00000063610532388488566560000016538400064239258003_);}
	
		.st9{clip-path:url(#SVGID_00000098202429051574271490000006510929048838234555_);fill:url(#SVGID_00000103961659466898776170000010523571949780378035_);}
	.st10{opacity:0.8;}
	.st11{clip-path:url(#SVGID_00000158750546468672833110000014733054804015836306_);}
	
		.st12{clip-path:url(#SVGID_00000128481268039820748580000014361564530824116879_);fill:url(#SVGID_00000018228406173993123520000012099349409636612016_);}
	.st13{fill:#FFFFFF;}
</style>
<g>
	<g class="st0">
		<g>
			<defs>
				<rect id="SVGID_1_" x="49" y="352.2" width="305.4" height="38.2"/>
			</defs>
			<clipPath id="SVGID_00000176765351133717635570000012126909562934492545_">
				<use xlink:href="#SVGID_1_"  style="overflow:visible;"/>
			</clipPath>
			<g style="clip-path:url(#SVGID_00000176765351133717635570000012126909562934492545_);">
				<defs>
					<path id="SVGID_00000157305119356629871540000000775734488799961515_" d="M354.4,371.3c0,10.5-68.4,19.1-152.7,19.1
						c-84.3,0-152.7-8.5-152.7-19.1c0-10.5,68.4-19.1,152.7-19.1C286.1,352.2,354.4,360.8,354.4,371.3"/>
				</defs>
				<clipPath id="SVGID_00000067950952263633491900000003266501765528629435_">
					<use xlink:href="#SVGID_00000157305119356629871540000000775734488799961515_"  style="overflow:visible;"/>
				</clipPath>
				<defs>
					<filter id="Adobe_OpacityMaskFilter" filterUnits="userSpaceOnUse" x="49" y="352.2" width="305.4" height="38.2">
						<feColorMatrix  type="matrix" values="1 0 0 0 0  0 1 0 0 0  0 0 1 0 0  0 0 0 1 0"/>
					</filter>
				</defs>
				
					<mask maskUnits="userSpaceOnUse" x="49" y="352.2" width="305.4" height="38.2" id="SVGID_00000049212371852767003890000004759514126971316927_">
					<g class="st2">
						
							<radialGradient id="SVGID_00000097483396815010978930000010051215389444290477_" cx="-220.8921" cy="458.3517" r="3.8478" gradientTransform="matrix(39.683 0 0 -4.9609 8967.3965 2645.1545)" gradientUnits="userSpaceOnUse">
							<stop  offset="0" style="stop-color:#FFFFFF"/>
							<stop  offset="1" style="stop-color:#000000"/>
						</radialGradient>
						
							<rect x="49" y="352.2" style="clip-path:url(#SVGID_00000067950952263633491900000003266501765528629435_);fill:url(#SVGID_00000097483396815010978930000010051215389444290477_);" width="305.4" height="38.2"/>
					</g>
				</mask>
				
					<radialGradient id="SVGID_00000173122978646344011670000013423137827732802212_" cx="-220.8911" cy="458.3524" r="3.8478" gradientTransform="matrix(39.683 0 0 -4.9609 8967.3555 2645.1584)" gradientUnits="userSpaceOnUse">
					<stop  offset="0" style="stop-color:#000000"/>
					<stop  offset="1" style="stop-color:#000000"/>
				</radialGradient>
				
					<rect x="49" y="352.2" style="clip-path:url(#SVGID_00000067950952263633491900000003266501765528629435_);mask:url(#SVGID_00000049212371852767003890000004759514126971316927_);fill:url(#SVGID_00000173122978646344011670000013423137827732802212_);" width="305.4" height="38.2"/>
			</g>
		</g>
	</g>
	<g class="st5">
		<g>
			<defs>
				<rect id="SVGID_00000139989218724641378310000009770043493100820887_" x="33.3" y="13.6" width="173.6" height="277.9"/>
			</defs>
			<clipPath id="SVGID_00000018954752037062093300000014982294374307614853_">
				<use xlink:href="#SVGID_00000139989218724641378310000009770043493100820887_"  style="overflow:visible;"/>
			</clipPath>
			<g style="clip-path:url(#SVGID_00000018954752037062093300000014982294374307614853_);">
				<defs>
					<path id="SVGID_00000010286693717540225330000012357953394702017191_" d="M181.5,291.1C105,296.2,38.9,238.2,33.7,161.7
						C28.5,85.1,86.2,19,162.7,13.9c76.4-5.1-33.3,48.8-24.8,139.5C137.9,285.1,257.9,286.1,181.5,291.1"/>
				</defs>
				<clipPath id="SVGID_00000083771641566333782220000012330661644904724414_">
					<use xlink:href="#SVGID_00000010286693717540225330000012357953394702017191_"  style="overflow:visible;"/>
				</clipPath>
				
					<linearGradient id="SVGID_00000012438592950843991510000006800889466497350828_" gradientUnits="userSpaceOnUse" x1="-222.0824" y1="496.9489" x2="-218.2341" y2="496.9489" gradientTransform="matrix(30.3104 65.0008 65.0008 -30.3104 -25481.1387 29535.7188)">
					<stop  offset="0" style="stop-color:#007C34"/>
					<stop  offset="1" style="stop-color:#50BCBD"/>
				</linearGradient>
				
					<polygon style="clip-path:url(#SVGID_00000083771641566333782220000012330661644904724414_);fill:url(#SVGID_00000012438592950843991510000006800889466497350828_);" points="
					216.9,-79 368,244.9 69.4,384.1 -81.6,60.2 				"/>
			</g>
		</g>
	</g>
	<g class="st5">
		<g>
			<defs>
				<rect id="SVGID_00000060730578070355296230000002390243553529168571_" x="117.7" y="26.7" width="249.2" height="237.6"/>
			</defs>
			<clipPath id="SVGID_00000067934613766635791120000002259904042692659644_">
				<use xlink:href="#SVGID_00000060730578070355296230000002390243553529168571_"  style="overflow:visible;"/>
			</clipPath>
			<g style="clip-path:url(#SVGID_00000067934613766635791120000002259904042692659644_);">
				<defs>
					<path id="SVGID_00000146496199099369605950000003209174942594029965_" d="M166.2,194.4C61.6,200,151.4,61.6,202.5,35.9
						c51.1-25.6,117.7,3.7,148.7,65.6c31,61.9,14.8,132.8-36.3,158.4C263.8,285.6,258.6,189.4,166.2,194.4"/>
				</defs>
				<clipPath id="SVGID_00000160910220321546213000000004549523068588744586_">
					<use xlink:href="#SVGID_00000146496199099369605950000003209174942594029965_"  style="overflow:visible;"/>
				</clipPath>
				
					<linearGradient id="SVGID_00000031912199388514933020000000161562181758711999_" gradientUnits="userSpaceOnUse" x1="-222.2669" y1="498.1187" x2="-218.4184" y2="498.1187" gradientTransform="matrix(-56.6225 26.4035 26.4035 56.6225 -25417.4004 -22233.9141)">
					<stop  offset="0" style="stop-color:#95C11F"/>
					<stop  offset="0.13" style="stop-color:#95C11F"/>
					<stop  offset="0.86" style="stop-color:#007C34"/>
					<stop  offset="1" style="stop-color:#007C34"/>
				</linearGradient>
				
					<polygon style="clip-path:url(#SVGID_00000160910220321546213000000004549523068588744586_);fill:url(#SVGID_00000031912199388514933020000000161562181758711999_);" points="
					487.6,236.4 118.8,408.4 -43.9,59.5 324.9,-112.5 				"/>
			</g>
		</g>
	</g>
	<g class="st10">
		<g>
			<defs>
				<rect id="SVGID_00000008863711745157382480000012220545045791087799_" x="108.1" y="84.8" width="262.1" height="222"/>
			</defs>
			<clipPath id="SVGID_00000106133415080815017350000015043053852641998267_">
				<use xlink:href="#SVGID_00000008863711745157382480000012220545045791087799_"  style="overflow:visible;"/>
			</clipPath>
			<g style="clip-path:url(#SVGID_00000106133415080815017350000015043053852641998267_);">
				<defs>
					<path id="SVGID_00000124136564639071083290000002093820531433671816_" d="M257.9,91.4c-58.2-20.8-122.3,9.4-143.2,67.6
						C93.8,217.1,124,281.2,182.2,302c58.2,20.8,163.3-30.8,184.2-89C387.3,154.9,316.1,112.2,257.9,91.4"/>
				</defs>
				<clipPath id="SVGID_00000036242324506472150130000006274188459960198835_">
					<use xlink:href="#SVGID_00000124136564639071083290000002093820531433671816_"  style="overflow:visible;"/>
				</clipPath>
				
					<linearGradient id="SVGID_00000042707331577254879290000017416962929089629612_" gradientUnits="userSpaceOnUse" x1="-221.4072" y1="498.6356" x2="-217.5586" y2="498.6356" gradientTransform="matrix(-27.2544 52.1181 52.1181 27.2544 -31737.1562 -1939.1874)">
					<stop  offset="0" style="stop-color:#007C34"/>
					<stop  offset="4.727107e-02" style="stop-color:#007848"/>
					<stop  offset="9.789097e-02" style="stop-color:#1C705B"/>
					<stop  offset="0.1541" style="stop-color:#426669"/>
					<stop  offset="0.2147" style="stop-color:#575A72"/>
					<stop  offset="0.2808" style="stop-color:#664C76"/>
					<stop  offset="0.3545" style="stop-color:#713F78"/>
					<stop  offset="0.439" style="stop-color:#793479"/>
					<stop  offset="0.5408" style="stop-color:#7E2A79"/>
					<stop  offset="0.6777" style="stop-color:#812379"/>
					<stop  offset="1" style="stop-color:#822179"/>
				</linearGradient>
				
					<polygon style="clip-path:url(#SVGID_00000036242324506472150130000006274188459960198835_);fill:url(#SVGID_00000042707331577254879290000017416962929089629612_);" points="
					490.9,124.7 324.3,443.4 -9.8,268.7 156.8,-50 				"/>
			</g>
		</g>
	</g>
	<path class="st13" d="M171.3,167.8c4.6,17.5,20.4,30.5,39.4,30.5c18.9,0,34.8-12.9,39.4-30.5H171.3z"/>
	<path class="st13" d="M272,157.5c0,33.8-27.5,61.3-61.3,61.3c-33.8,0-61.3-27.5-61.3-61.3c0-3.5,0.4-6.9,0.9-10.3h-20.8
		c-0.4,3.4-0.7,6.8-0.7,10.3c0,45.2,36.6,81.8,81.8,81.8c45.2,0,81.8-36.6,81.8-81.8c0-3.5-0.3-6.9-0.7-10.3H271
		C271.6,150.6,272,154,272,157.5"/>
	<path class="st13" d="M271,167.8h-60.3v12.3h56.9C269.2,176.2,270.3,172,271,167.8"/>
	<path class="st13" d="M171.4,147.2c4.6-17.5,20.5-30.5,39.4-30.5c18.9,0,34.8,13,39.4,30.5h21c-4.9-28.9-30-51-60.3-51
		c-30.3,0-55.4,22.1-60.3,51H171.4z"/>
	<path class="st13" d="M212.7,21.6c81.1,0,147.2,66,147.2,147.2c0,81.1-66,147.2-147.2,147.2c-29.1,0-57.3-8.5-81.5-24.6l-1.4-0.9
		l-1.1,1.3c-9.2,10.6-22.6,16.7-36.6,16.7c-26.7,0-48.5-21.8-48.5-48.5c0-18.7,11-35.9,27.9-43.9l1.5-0.7l-0.5-1.6
		c-4.7-14.6-7-29.7-7-44.9C65.5,87.6,131.5,21.6,212.7,21.6 M212.7,19.7c-82.2,0-149.1,66.9-149.1,149.1c0,15.5,2.4,30.8,7.1,45.5
		c-17.7,8.3-29,26.1-29,45.6c0,27.8,22.6,50.4,50.4,50.4c14.6,0,28.5-6.3,38.1-17.4c24.5,16.3,53,24.9,82.5,24.9
		c82.2,0,149.1-66.9,149.1-149.1C361.8,86.5,294.9,19.7,212.7,19.7"/>
	<path class="st13" d="M134.9,309.9c8,0,14.6,6.5,14.6,14.6c0,8-6.5,14.6-14.6,14.6c-8,0-14.6-6.5-14.6-14.6
		C120.3,316.4,126.8,309.9,134.9,309.9 M134.9,308c-9.1,0-16.5,7.4-16.5,16.5c0,9.1,7.4,16.5,16.5,16.5c9.1,0,16.5-7.4,16.5-16.5
		C151.3,315.3,143.9,308,134.9,308"/>
</g>
</svg>
